{"title":"The.Rum.Diary.2011.720.BRRip.x264.Feel-Free","uid":6999462,"size":3056099323,"categoryP":"video","categoryS":"hd___movies","magnet":"?xt=urn:btih:747f49ccd0d486c6285015c6b8929021259fe2c8&amp;dn=+The.Rum.Diary.2011.720.BRRip.x264.Feel-Free&amp;tr=udp%3A%2F%2Ftracker.openbittorrent.com%3A80&amp;tr=udp%3A%2F%2Fopen.demonii.com%3A1337&amp;tr=udp%3A%2F%2Ftracker.coppersurfer.tk%3A6969&amp;tr=udp%3A%2F%2Fexodus.desync.com%3A6969","seeders":1,"leechers":0,"uploader":"shipdit","files":8,"time":1328002749,"description":"Genre:Comedy | Drama | Romance\nLanguage:English\nIMDb:http://www.imdb.com/title/tt0376136/\nSource:1080p BluRay x264.-SPARKS Thanks\nEncoder:Pitic\n\nFormat : MPEG-4\nFormat profile : Base Media\nCodec ID : isom\nFile size : 2.84 GiB\nDuration : 1h 59mn\nOverall bit rate mode : Variable\nOverall bit rate : 3 392 Kbps\n\nVideo\nID : 1\nFormat : AVC\nFormat/Info : Advanced Video Codec\nFormat profile : &lt;a class=&quot;__cf_email__&quot; href=&quot;/cdn-cgi/l/email-protection&quot; data-cfemail=&quot;034b6a646b434f362d32&quot;&gt;[email&amp;#160;protected]&lt;/a&gt;&lt;script cf-hash='f9e31' type=&quot;text/javascript&quot;&gt;\n/* &lt;![CDATA[ */!function(){try{var t=&quot;currentScript&quot;in document?document.currentScript:function(){for(var t=document.getElementsByTagName(&quot;script&quot;),e=t.length;e--;)if(t[e].getAttribute(&quot;cf-hash&quot;))return t[e]}();if(t&amp;&amp;t.previousSibling){var e,r,n,i,c=t.previousSibling,a=c.getAttribute(&quot;data-cfemail&quot;);if(a){for(e=&quot;&quot;,r=parseInt(a.substr(0,2),16),n=2;a.length-n;n+=2)i=parseInt(a.substr(n,2),16)^r,e+=String.fromCharCode(i);e=document.createTextNode(e),c.parentNode.replaceChild(e,c)}}}catch(u){}}();/* ]]&gt; */&lt;/script&gt;\nFormat settings, CABAC : Yes\nFormat settings, ReFrames : 5 frames\nCodec ID : avc1\nCodec ID/Info : Advanced Video Coding\nDuration : 1h 59mn\nBit rate : 3 000 Kbps\nMaximum bit rate : 44.7 Mbps\nWidth : 1 280 pixels\nHeight : 696 pixels\nDisplay aspect ratio : 16:9\nFrame rate mode : Constant\nFrame rate : 23.976 fps\nColor space : YUV\nChroma subsampling : 4:2:0\nBit depth : 8 bits\nScan type : Progressive\nBits/(Pixel*Frame) : 0.140\nStream size : 2.47 GiB (87%)\nWriting library : x264 &lt;a href=&quot;\nhttp://shareimage.org/images/28v0bxuxj88d2pfjuya.png&quot; rel=&quot;nofollow&quot; target=&quot;_NEW&quot;&gt;\nhttp://shareimage.org/images/28v0bxuxj88d2pfjuya.png&lt;/a&gt; &lt;a href=&quot;\nhttp://shareimage.org/images/kbm51ciubylmrm2rqxfd.png&quot; rel=&quot;nofollow&quot; target=&quot;_NEW&quot;&gt;\nhttp://shareimage.org/images/kbm51ciubylmrm2rqxfd.png&lt;/a&gt;\nAudio\nID : 2\nFormat : AAC\nFormat/Info : Advanced Audio Codec\nFormat profile : LC\nCodec ID : 40\nDuration : 1h 59mn\nBit rate mode : Variable\nBit rate : 444 Kbps\nMaximum bit rate : 531 Kbps\nChannel(s) : 6 channels\nChannel positions : Front: L C R, Side: L R, LFE\nSampling rate : 48.0 KHz\nCompression mode : Lossy\nStream size : 381 MiB (13%)","torrent":{"xt":"urn:btih:747f49ccd0d486c6285015c6b8929021259fe2c8","amp;dn":"+The.Rum.Diary.2011.720.BRRip.x264.Feel-Free","amp;tr":["udp%3A%2F%2Ftracker.openbittorrent.com%3A80","udp%3A%2F%2Fopen.demonii.com%3A1337","udp%3A%2F%2Ftracker.coppersurfer.tk%3A6969","udp%3A%2F%2Fexodus.desync.com%3A6969"],"infoHash":"747f49ccd0d486c6285015c6b8929021259fe2c8","infoHashBuffer":{"type":"Buffer","data":[116,127,73,204,208,212,134,198,40,80,21,198,184,146,144,33,37,159,226,200]},"announce":[],"urlList":[]}}